# xmcd
#
# Track frame offsets:
#	150
#	28104
#	53237
#	76928
#	111277
#	135330
#	157823
#	187498
#	212944
#	234698
#	260688
#
# Disc length: 3846 seconds
#
# Revision: 0
# Processed by: cddbd v1.5.2PL0 Copyright (c) Steve Scherf et al.
# Submitted via: EZCDAudioConverter 8.0.2.1
#
DISCID=9c0f040b
DTITLE=Tùng Dương - Độc Đạo
DYEAR=2013
DGENRE=
TTITLE0=Tùng Dương - Độc Đạo
TTITLE1=Tùng Dương - Cuộn
TTITLE2=Tùng Dương - Thể đơn bào
TTITLE3=Tùng Dương, Dhafer Youssef - Bài ca trên núi
TTITLE4=Tùng Dương - Con ốc
TTITLE5=Tùng Dương - All is full of love
TTITLE6=Tùng Dương, Tom Diakite - Giăng tơ
TTITLE7=Tùng Dương, Julia Sarr - 7 seconds
TTITLE8=Tùng Dương - Ánh trăng khuya
TTITLE9=Tùng Dương, Julia Sarr - Redemption song
TTITLE10=Tùng Dương - Chiếc khăn piêu
EXTD=
EXTT0=
EXTT1=
EXTT2=
EXTT3=
EXTT4=
EXTT5=
EXTT6=
EXTT7=
EXTT8=
EXTT9=
EXTT10=
PLAYORDER=
